<svg version="1.1" preserveAspectRatio="none" xmlns="http://www.w3.org/2000/svg" width="500" height="500" viewBox="0 0 500 500"><rect width="100%" height="100%" fill="#EBE3E3" fill-opacity="1"/><svg viewBox="167.8034 640.3317 284.2455 371.3819" width="254.86904854544608" height="333" x="122.5655px" y="83.5px" xmlns="http://www.w3.org/2000/svg" xmlns:xlink="http://www.w3.org/1999/xlink" preserveAspectRatio="none"><defs></defs><style>.aLgOaV3zRcolors-3 {fill:#6B6B6B;fill-opacity:1;}.aLgOaV3zRcolors-4 {fill:#AEAEAE;fill-opacity:1;}.aLgOaV3zRcolors-5 {fill:#E13737;fill-opacity:1;}.aLgOaV3zRcolors-6 {fill:#A21D1D;fill-opacity:1;}.aLgOaV3zRcolors-7 {fill:#FDFDFD;fill-opacity:1;}.companyName {fill:#E13737;fill-opacity:1;}.icon1 {fill:#E13737;fill-opacity:1;}.icon2 {fill:#EFB92A;fill-opacity:1;}.icon3 {fill:#EF8C2A;fill-opacity:1;}.icon3-str {stroke:#EF8C2A;stroke-opacity:1;}.text {fill:#E13737;fill-opacity:1;}</style><g opacity="1" transform="rotate(0 196.228 640.3317)">
<svg width="227.3964" height="186.1819" x="196.228" y="640.3317" version="1.1" preserveAspectRatio="none" viewBox="20 34.5 159.99900817871094 131.00003051757812">
  <g transform="matrix(1 0 0 1 0 0)"><g><path d="M163.115 34.5H36.885c-9.31 0-16.884 7.585-16.884 16.908v75.88L20 127.3l.001.012v4.017c0 9.323 7.574 16.908 16.884 16.908h46.704l-1.057 11.429h-12.54a2.915 2.915 0 0 0-2.913 2.917 2.915 2.915 0 0 0 2.913 2.917h60.014a2.915 2.915 0 0 0 2.913-2.917 2.915 2.915 0 0 0-2.913-2.917h-12.539l-1.057-11.429h46.704c9.31 0 16.885-7.585 16.885-16.908V51.408C180 42.085 172.425 34.5 163.115 34.5zm-126.23 5.833h126.229c6.098 0 11.059 4.968 11.059 11.075v72.975H25.826V51.408c0-6.107 4.961-11.075 11.059-11.075zm74.733 119.333H88.382l1.057-11.429h21.122l1.057 11.429zm51.497-17.262h-49.364a2.894 2.894 0 0 0-1.085 0H87.334a2.888 2.888 0 0 0-1.095 0H36.885c-6.098 0-11.059-4.968-11.059-11.075v-1.112h148.348v1.112c0 6.107-4.961 11.075-11.059 11.075z" data-color="1" class="icon1"></path><path d="M104.4 132.975h-8.8c-1.609 0-2.913 1.306-2.913 2.917s1.304 2.917 2.913 2.917h8.8c1.609 0 2.913-1.306 2.913-2.917s-1.305-2.917-2.913-2.917z" data-color="1" class="icon1"></path><path d="M82.358 102.783a2.914 2.914 0 0 0 3.371 2.37 2.917 2.917 0 0 0 2.367-3.376l-2.339-13.381a2.91 2.91 0 0 0-3.371-2.37 2.917 2.917 0 0 0-2.367 3.376l2.339 13.381z" data-color="1" class="icon1"></path><path d="M99.273 105.195a2.915 2.915 0 0 0 2.913-2.917V88.899a2.915 2.915 0 0 0-2.913-2.917 2.915 2.915 0 0 0-2.913 2.917v13.379a2.916 2.916 0 0 0 2.913 2.917z" data-color="1" class="icon1"></path><path d="M113.005 105.151a2.908 2.908 0 0 0 3.371-2.37l2.338-13.378a2.914 2.914 0 1 0-5.738-1.006l-2.338 13.378a2.915 2.915 0 0 0 2.367 3.376z" data-color="1" class="icon1"></path><path d="M59.534 83.967h1.578l7.945 26.518a4.632 4.632 0 0 0 4.462 3.325h51.696a4.633 4.633 0 0 0 4.463-3.325l7.944-26.518h1.577a4.523 4.523 0 0 0 4.514-4.521V69.145a4.523 4.523 0 0 0-4.514-4.521h-24.393v-3.898c0-5.299-4.305-9.611-9.598-9.611H93.524c-5.292 0-9.598 4.311-9.598 9.611v3.898H59.533a4.523 4.523 0 0 0-4.514 4.521v10.301a4.523 4.523 0 0 0 4.515 4.521zm64.813 24.009H74.386l-7.193-24.01h64.347l-7.193 24.01zm-34.595-47.25a3.778 3.778 0 0 1 3.772-3.777h11.684a3.78 3.78 0 0 1 3.772 3.777v3.898H89.752v-3.898zm-28.907 9.732h77.043v7.676H63.537a2.93 2.93 0 0 0-.538 0h-2.154v-7.676z" data-color="1" class="icon1"></path></g></g>
</svg>
</g><g opacity="1" transform="rotate(0 269.0824 992.5136)">
<svg width="81.6876" height="19.2" x="269.0824" y="992.5136" version="1.1" preserveAspectRatio="none" viewBox="2.92 -29.46 154.50000000000003 36.32">
  <g transform="matrix(1 0 0 1 0 0)" class="text"><path id="id-6izo4zJp7" d="M6.48 0L2.92 0L2.92-20.26L5.04-20.26Q5.80-20.26 6-19.52L6-19.52L6.26-17.44Q7.38-18.82 8.77-19.70Q10.16-20.58 12-20.58L12-20.58Q14.06-20.58 15.33-19.44Q16.60-18.30 17.16-16.36L17.16-16.36Q17.58-17.46 18.27-18.26Q18.96-19.06 19.82-19.58Q20.68-20.10 21.65-20.34Q22.62-20.58 23.62-20.58L23.62-20.58Q25.22-20.58 26.47-20.07Q27.72-19.56 28.59-18.58Q29.46-17.60 29.92-16.17Q30.38-14.74 30.38-12.90L30.38-12.90L30.38 0L26.82 0L26.82-12.90Q26.82-15.28 25.78-16.51Q24.74-17.74 22.76-17.74L22.76-17.74Q21.88-17.74 21.09-17.43Q20.30-17.12 19.70-16.52Q19.10-15.92 18.75-15.01Q18.40-14.10 18.40-12.90L18.40-12.90L18.40 0L14.84 0L14.84-12.90Q14.84-15.34 13.86-16.54Q12.88-17.74 11-17.74L11-17.74Q9.68-17.74 8.55-17.03Q7.42-16.32 6.48-15.10L6.48-15.10L6.48 0Z M54.76-20.26L43.46 5.98Q43.28 6.38 43.01 6.62Q42.74 6.86 42.18 6.86L42.18 6.86L39.54 6.86L43.24-1.18L34.88-20.26L37.96-20.26Q38.42-20.26 38.68-20.03Q38.94-19.80 39.06-19.52L39.06-19.52L44.48-6.76Q44.66-6.32 44.79-5.88Q44.92-5.44 45.02-4.98L45.02-4.98Q45.16-5.44 45.30-5.88Q45.44-6.32 45.62-6.78L45.62-6.78L50.88-19.52Q51-19.84 51.29-20.05Q51.58-20.26 51.92-20.26L51.92-20.26L54.76-20.26Z M82.92-18.22L82.12-16.92Q81.88-16.48 81.38-16.48L81.38-16.48Q81.08-16.48 80.70-16.70Q80.32-16.92 79.77-17.19Q79.22-17.46 78.46-17.69Q77.70-17.92 76.66-17.92L76.66-17.92Q75.76-17.92 75.04-17.69Q74.32-17.46 73.81-17.06Q73.30-16.66 73.03-16.13Q72.76-15.60 72.76-14.98L72.76-14.98Q72.76-14.20 73.21-13.68Q73.66-13.16 74.40-12.78Q75.14-12.40 76.08-12.11Q77.02-11.82 78.01-11.49Q79.00-11.16 79.94-10.76Q80.88-10.36 81.62-9.76Q82.36-9.16 82.81-8.29Q83.26-7.42 83.26-6.20L83.26-6.20Q83.26-4.80 82.76-3.61Q82.26-2.42 81.28-1.55Q80.30-0.68 78.88-0.18Q77.46 0.32 75.60 0.32L75.60 0.32Q73.48 0.32 71.76-0.37Q70.04-1.06 68.84-2.14L68.84-2.14L69.68-3.50Q69.84-3.76 70.06-3.90Q70.28-4.04 70.64-4.04L70.64-4.04Q71.00-4.04 71.40-3.76Q71.80-3.48 72.37-3.14Q72.94-2.80 73.75-2.52Q74.56-2.24 75.78-2.24L75.78-2.24Q76.82-2.24 77.60-2.51Q78.38-2.78 78.90-3.24Q79.42-3.70 79.67-4.30Q79.92-4.90 79.92-5.58L79.92-5.58Q79.92-6.42 79.47-6.97Q79.02-7.52 78.28-7.91Q77.54-8.30 76.59-8.59Q75.64-8.88 74.65-9.20Q73.66-9.52 72.71-9.93Q71.76-10.34 71.02-10.96Q70.28-11.58 69.83-12.49Q69.38-13.40 69.38-14.70L69.38-14.70Q69.38-15.86 69.86-16.93Q70.34-18 71.26-18.81Q72.18-19.62 73.52-20.10Q74.86-20.58 76.58-20.58L76.58-20.58Q78.58-20.58 80.17-19.95Q81.76-19.32 82.92-18.22L82.92-18.22Z M93.84 0L90.28 0L90.28-29.46L93.84-29.46L93.84-17.54Q95.14-18.92 96.72-19.75Q98.30-20.58 100.36-20.58L100.36-20.58Q102.02-20.58 103.29-20.03Q104.56-19.48 105.41-18.47Q106.26-17.46 106.70-16.04Q107.14-14.62 107.14-12.90L107.14-12.90L107.14 0L103.58 0L103.58-12.90Q103.58-15.20 102.53-16.47Q101.48-17.74 99.32-17.74L99.32-17.74Q97.74-17.74 96.37-16.98Q95.00-16.22 93.84-14.92L93.84-14.92L93.84 0Z M123.12-20.58L123.12-20.58Q125.34-20.58 127.13-19.84Q128.92-19.10 130.17-17.74Q131.42-16.38 132.09-14.45Q132.76-12.52 132.76-10.14L132.76-10.14Q132.76-7.74 132.09-5.82Q131.42-3.90 130.17-2.54Q128.92-1.18 127.13-0.45Q125.34 0.28 123.12 0.28L123.12 0.28Q120.90 0.28 119.11-0.45Q117.32-1.18 116.06-2.54Q114.80-3.90 114.12-5.82Q113.44-7.74 113.44-10.14L113.44-10.14Q113.44-12.52 114.12-14.45Q114.80-16.38 116.06-17.74Q117.32-19.10 119.11-19.84Q120.90-20.58 123.12-20.58ZM123.12-2.50L123.12-2.50Q126.12-2.50 127.60-4.51Q129.08-6.52 129.08-10.12L129.08-10.12Q129.08-13.74 127.60-15.76Q126.12-17.78 123.12-17.78L123.12-17.78Q121.60-17.78 120.48-17.26Q119.36-16.74 118.61-15.76Q117.86-14.78 117.49-13.35Q117.12-11.92 117.12-10.12L117.12-10.12Q117.12-8.32 117.49-6.90Q117.86-5.48 118.61-4.51Q119.36-3.54 120.48-3.02Q121.60-2.50 123.12-2.50Z M143.12 6.86L139.56 6.86L139.56-20.26L141.68-20.26Q142.44-20.26 142.64-19.52L142.64-19.52L142.94-17.12Q144.24-18.70 145.91-19.66Q147.58-20.62 149.76-20.62L149.76-20.62Q151.50-20.62 152.92-19.95Q154.34-19.28 155.34-17.97Q156.34-16.66 156.88-14.72Q157.42-12.78 157.42-10.26L157.42-10.26Q157.42-8.02 156.82-6.09Q156.22-4.16 155.10-2.75Q153.98-1.34 152.35-0.53Q150.72 0.28 148.68 0.28L148.68 0.28Q146.80 0.28 145.47-0.34Q144.14-0.96 143.12-2.10L143.12-2.10L143.12 6.86ZM148.58-17.74L148.58-17.74Q146.84-17.74 145.53-16.94Q144.22-16.14 143.12-14.68L143.12-14.68L143.12-4.88Q144.10-3.56 145.27-3.02Q146.44-2.48 147.88-2.48L147.88-2.48Q150.70-2.48 152.22-4.50Q153.74-6.52 153.74-10.26L153.74-10.26Q153.74-12.24 153.39-13.66Q153.04-15.08 152.38-15.99Q151.72-16.90 150.76-17.32Q149.80-17.74 148.58-17.74Z"/></g>
</svg>
</g><g opacity="1" transform="rotate(0 167.8034 856.5136)">
<svg width="284.2455" height="120" x="167.8034" y="856.5136" version="1.1" preserveAspectRatio="none" viewBox="3.52 -21.68 52.68 22.240000000000002">
  <g transform="matrix(1 0 0 1 0 0)" class="companyName"><path id="id-D6z1nYkh3" d="M14.72-4.92L14.72-4.92Q15.88-4.68 15.88-3.12L15.88-3.12Q15.88-2.28 15.48-1.80Q15.08-1.32 14.44-1.32L14.44-1.32Q14.24-1.32 13.68-1.38Q13.12-1.44 12.48-1.50Q11.84-1.56 11.24-1.62Q10.64-1.68 10.40-1.68L10.40-1.68Q10.16-1.68 9.96-1.68Q9.76-1.68 9.56-1.64L9.56-1.64Q8.88-1.68 7.98-1.82Q7.08-1.96 6.22-2.14Q5.36-2.32 4.70-2.52Q4.04-2.72 3.92-2.88L3.92-2.88Q3.52-4.08 3.52-6.08L3.52-6.08Q3.52-6.40 3.52-6.74Q3.52-7.08 3.56-7.44L3.56-7.44L3.80-10.28Q3.84-10.60 3.84-10.90Q3.84-11.20 3.84-11.44L3.84-11.44Q3.84-11.76 3.84-11.98Q3.84-12.20 3.76-12.40L3.76-12.40Q4.04-13.92 4.16-14.94Q4.28-15.96 4.28-16.52L4.28-16.52L4.28-16.84Q4.28-17.40 4.76-20.40L4.76-20.40Q5.36-21.68 6.60-21.68L6.60-21.68Q7.36-21.68 7.88-21.10Q8.40-20.52 8.40-19.52L8.40-19.52Q8.24-18.96 8.10-18.12Q7.96-17.28 7.84-16.12L7.84-16.12L7.84-15.80Q7.84-15.44 7.78-14.70Q7.72-13.96 7.64-13.18Q7.56-12.40 7.50-11.78Q7.44-11.16 7.44-11.08L7.44-11.08Q7.44-10.64 7.48-10.52L7.48-10.52Q7.32-8.84 7.24-7.72Q7.16-6.60 7.16-6L7.16-6Q7.16-5.60 7.20-5.48L7.20-5.48Q9.28-5.24 9.96-5.24L9.96-5.24Q10.28-5.24 10.62-5.26Q10.96-5.28 11.32-5.28L11.32-5.28Q12.84-5.28 14.72-4.92Z M27.04-18.84L27.04-18.84Q27.12-18.52 27.12-18.24L27.12-18.24Q27.12-16.96 26.36-16.08L26.36-16.08Q25.16-15.60 23.96-15.60L23.96-15.60Q23.20-16.08 22.70-16.70Q22.20-17.32 22.20-17.92L22.20-17.92Q22.20-18.44 23.40-20.48L23.40-20.48Q23.92-20.40 24.50-20.36Q25.08-20.32 25.58-20.16Q26.08-20 26.46-19.70Q26.84-19.40 27.04-18.84ZM25.76-12.16L25.76-12.16L25.76-11.64Q25.76-11.44 25.76-11.20Q25.76-10.96 25.68-10.76L25.68-10.76L25.36-8.96L25.36-8.60Q25.36-8.36 25.32-7.96Q25.28-7.56 25.22-7.16Q25.16-6.76 25.12-6.40Q25.08-6.04 25.08-5.80L25.08-5.80Q25.08-5.60 25.10-5.48Q25.12-5.36 25.12-5.16L25.12-5.16Q25.12-4.80 25.04-4.38Q24.96-3.96 24.96-3.44L24.96-3.44Q24.96-2.96 25.08-2.44L25.08-2.44Q24.64-0.64 23.24-0.64L23.24-0.64Q21.28-0.64 21.28-4.32L21.28-4.32Q21.28-5.56 21.40-6.78Q21.52-8 21.68-9.04Q21.84-10.08 22.02-10.86Q22.20-11.64 22.32-12.08L22.32-12.08Q22.92-12.96 24-12.96L24-12.96Q25.04-12.96 25.76-12.16Z M56.20-2.52L56.20-2.28Q56.20-1.76 55.62-1.42Q55.04-1.08 54.36-1.08L54.36-1.08Q53.56-1.08 53.18-1.60Q52.80-2.12 52.64-2.94Q52.48-3.76 52.46-4.76Q52.44-5.76 52.40-6.68L52.40-6.68Q52.32-6.96 52.20-7.48Q52.08-8 52-8.80L52-8.80Q50.92-10 49.40-10L49.40-10Q48.84-10 48.28-9.90Q47.72-9.80 47.24-9.46Q46.76-9.12 46.36-8.44Q45.96-7.76 45.72-6.60L45.72-6.60Q45.76-6.40 45.76-5.88L45.76-5.88Q45.76-5.44 45.70-4.82Q45.64-4.20 45.56-3.40L45.56-3.40L45.56-3.20Q45.56-3.04 45.56-2.42Q45.56-1.80 45.40-1.14Q45.24-0.48 44.82 0.04Q44.40 0.56 43.60 0.56L43.60 0.56Q42.88 0.56 42.32 0.14Q41.76-0.28 41.76-0.88L41.76-0.88Q41.76-0.96 41.82-1.48Q41.88-2 41.98-2.66Q42.08-3.32 42.14-3.98Q42.20-4.64 42.20-5.04L42.20-5.04Q42.20-5.72 42.08-6.40L42.08-6.40L42.08-6.92Q42.08-8.96 41.28-10.76L41.28-10.76Q40.68-11.24 39.40-11.40L39.40-11.40Q39.16-11.32 38.80-11.16Q38.44-11 38.08-10.50Q37.72-10 37.44-9.08Q37.16-8.16 37.04-6.60L37.04-6.60L36.92-4.96Q37.16-3.76 37.16-2.88L37.16-2.88Q37.16-1.84 36.82-1.22Q36.48-0.60 35.32-0.60L35.32-0.60Q34.72-0.60 34.34-0.74Q33.96-0.88 33.74-1.38Q33.52-1.88 33.44-2.86Q33.36-3.84 33.36-5.48L33.36-5.48Q33.36-6.80 33.52-8.06Q33.68-9.32 34-11.32L34-11.32Q33.88-12 33.66-12.58Q33.44-13.16 33.44-13.48L33.44-13.48Q33.44-14.16 34.04-14.68Q34.64-15.20 35.44-15.20L35.44-15.20Q36.04-15.20 36.52-14.84L36.52-14.84L37.20-13.96Q37.68-14.36 38.04-14.58Q38.40-14.80 38.68-14.92Q38.96-15.04 39.24-15.06Q39.52-15.08 39.88-15.08L39.88-15.08Q40.40-15.08 40.70-15.08Q41-15.08 41.32-14.96Q41.64-14.84 42.06-14.58Q42.48-14.32 43.24-13.80L43.24-13.80Q43.72-13.48 44.52-11.72L44.52-11.72L44.76-12Q45.08-12.28 45.64-12.56Q46.20-12.84 46.86-13.06Q47.52-13.28 48.22-13.42Q48.92-13.56 49.48-13.56L49.48-13.56Q50.80-13.56 51.76-13.30Q52.72-13.04 53.40-12.54Q54.08-12.04 54.60-11.26Q55.12-10.48 55.60-9.48L55.60-9.48L55.60-9.20Q55.60-8.88 55.68-8.04Q55.76-7.20 55.84-6.36Q55.92-5.52 56-4.90Q56.08-4.28 56.08-4.36L56.08-4.36Q56.08-4.32 56.10-4.10Q56.12-3.88 56.14-3.58Q56.16-3.28 56.18-2.98Q56.20-2.68 56.20-2.52L56.20-2.52Z"/></g>
</svg>
</g></svg></svg>